<svg xmlns="http://www.w3.org/2000/svg" version="1.1" xmlns:xlink="http://www.w3.org/1999/xlink" xmlns:svgjs="http://svgjs.dev/svgjs" viewBox="0 0 800 800"><defs><linearGradient x1="50%" y1="0%" x2="50%" y2="100%" id="ccchaos-grad"><stop stop-color="hsl(206, 75%, 49%)" stop-opacity="1" offset="0%"></stop><stop stop-color="hsl(331, 90%, 56%)" stop-opacity="1" offset="100%"></stop></linearGradient></defs><g stroke-width="2" stroke="url(#ccchaos-grad)" fill="none" stroke-linecap="round"><path d="M422.23 102.87C432.63 106.81 442.97 112.13 453.2 118.17 463.4 123.91 473.42 129.17 483.15 133.52 492.72 136.27 501.85 137.81 510.36 138.27 518.52 137.44 525.87 136.24 532.23 135.13 540.43 134.04 550.49 139.74 552.8 147.53 554.2 154.51 555.4 162.83 556.86 172.2 559.55 182.14 563.41 192.56 568.91 203.13 576.64 213.5 586.49 223.62 598.5 233.33 612.39 242.4 627.63 250.97 643.41 259.07 658.79 266.48 672.68 273.57 683.92 280.44 691.85 286.81 695.58 293.19 694.75 299.69 690.24 305.91 682.24 312.43 671.97 319.31 661.74 326.07 652.6 333.29 646.25 340.99 644.52 348.65 647.58 356.83 655.44 365.53 667.57 374.21 682.09 383.43 696.88 393.2 710 402.98 718.82 413.09 722.09 423.53 719.86 434.01 711.98 444.84 699.63 456.01 684.69 467.24 668.73 478.82 653.64 490.68 641.11 502.55 632.03 514.62 626.87 526.76 625.96 538.68 628.34 550.42 633.01 561.72 639.47 572.39 645.86 582.21 651.03 590.87 655.27 601.41 645.06 612.16 631.06 612.28 619.09 611.12 605.72 609.04 591.61 606.56 577.15 604.93 562.87 604.17 549.14 604.94 536.02 608.22 523.79 613.93 512.47 622.24 501.98 633.22 492.28 646.21 483.21 660.44 474.74 675.07 466.61 688.81 458.64 700.41 450.96 709.07 443.2 713.71 435.22 713.78 427.33 709.89 419.1 702.04 410.48 691.25 401.86 679.59 392.8 668.01 383.33 658.16 373.85 651.99 364.19 649.83 354.44 651.74 344.75 657.75 335.02 666.35 325.37 676.16 315.85 686.4 306.51 694.99 297.46 700.78 288.65 703.51 280.25 702.15 272.37 696.8 264.81 688.16 257.84 676.57 251.54 662.99 245.51 648.47 240.1 633.83 235.27 619.94 230.49 607.5 226.07 596.87 221.89 588.23 217.33 581.82 212.69 577.24 207.81 574.1 202.17 572.52 196.08 571.56 189.51 570.77 182.18 570.39 174.51 569.43 166.68 567.63 158.65 565.44 150.96 562.08 143.91 557.55 137.47 552.38 132.15 546.09 128.14 538.8 125.1 530.99 123.34 522.41 122.75 513.23 122.59 503.75 123 493.88 123.66 483.77 123.72 473.55 123.43 463.23 122.64 452.9 120.8 442.55 118.51 432.25 116.05 422.05 113.26 411.85 111.11 401.98 109.93 392.42 109.53 382.83 110.58 373.48 113.08 364.33 116.53 355.07 121.15 345.89 126.6 336.75 132.19 327.38 137.95 317.91 143.57 308.29 148.43 298.34 152.78 288.15 156.6 277.69 159.51 266.94 162.1 255.95 164.57 244.83 166.72 233.64 169.26 222.53 172.43 211.71 176 201.29 180.56 191.54 186.14 182.73 192.49 174.83 199.88 168.2 208.19 162.99 217.14 158.87 226.77 156.12 236.9 154.66 247.33 153.75 258 153.55 268.76 153.71 279.5 153.32 290.2 152.49 300.79 150.89 311.21 147.83 321.51 143.66 331.71 138.43 341.73 131.98 351.71 125.05 361.69 118.17 371.56 111.52 381.51 106.05 391.58 102.3 401.61 100.22 411.83 100.41 422.22 102.87" stroke-dasharray="10 2" transform="rotate(0, 400, 400)" opacity="0.39"></path><path d="M421.57 113.55C431.55 117.42 441.28 122.64 450.71 128.59 460.1 134.31 469.1 139.67 477.64 144.23 486.02 147.33 493.8 149.27 500.85 150.15 510.58 149.23 525.05 146.2 529.77 146.53 533.59 149.52 540.19 164.91 544.87 176.84 549.67 185.94 555.84 195.76 563.7 205.99 573.51 216.3 585.11 226.6 598.31 236.7 612.68 246.39 627.63 255.7 642.35 264.6 655.99 272.92 667.62 280.88 676.29 288.56 681.67 295.73 683.09 302.78 680.48 309.81 674.88 316.51 666.56 323.35 656.71 330.43 647.47 337.33 639.66 344.57 634.72 352.2 634.16 359.76 637.97 367.78 646.05 376.28 657.87 384.76 671.72 393.75 685.71 403.29 698.19 412.83 706.77 422.71 710.34 432.9 708.93 443.11 702.26 453.64 691.29 464.43 677.59 475.22 662.49 486.24 647.66 497.39 634.68 508.44 624.46 519.48 617.61 530.34 614.62 540.86 614.87 550.94 617.65 560.34 622.66 569.03 628.3 576.71 633.52 583.12 639.42 590.49 636.35 596.3 626.63 595.27 617.38 594.05 606.35 592.46 594.09 591.02 581 590.83 567.53 591.86 554.1 594.61 540.81 599.79 528.02 607.22 515.89 616.89 504.32 628.69 493.44 641.92 483.22 655.81 473.52 669.55 464.29 682 455.4 692.07 446.83 699.21 438.41 702.5 430 701.58 421.73 697.14 413.35 689.23 404.79 678.78 396.25 667.7 387.48 656.79 378.48 647.48 369.47 641.54 360.46 639.23 351.49 640.62 342.56 645.84 333.73 653.54 325.1 662.58 316.58 672.32 308.34 680.87 300.47 687.15 292.78 690.91 285.55 691.06 278.84 687.52 272.33 680.85 266.37 671.15 260.97 659.18 255.68 645.84 250.85 631.83 246.4 617.96 241.8 604.92 237.36 593.16 232.94 582.99 228 574.71 222.83 568.14 217.31 563.09 211.03 559.67 204.3 557.19 197.16 555.26 189.42 554.1 181.49 552.81 173.58 551.11 165.69 549.39 158.31 546.85 151.72 543.39 145.86 539.54 141.18 534.69 137.81 528.89 135.37 522.68 134.13 515.63 133.93 507.88 134.05 499.85 134.62 491.28 135.32 482.28 135.38 473.16 135.02 463.76 134.12 454.15 132.18 444.52 129.8 434.76 127.22 424.91 124.32 415.06 122.02 405.36 120.65 395.81 120.03 386.23 120.83 376.74 123.06 367.32 126.27 357.79 130.68 348.24 136 338.63 141.58 328.83 147.44 318.89 153.26 308.76 158.45 298.43 163.2 287.89 167.41 277.18 170.71 266.35 173.57 255.45 176.18 244.59 178.28 233.89 180.57 223.49 183.24 213.59 186.11 204.27 189.76 195.78 194.29 188.35 199.46 181.85 205.63 176.6 212.73 172.69 220.49 169.68 229.06 167.85 238.25 167.02 247.88 166.47 257.92 166.34 268.22 166.31 278.68 165.52 289.22 164.16 299.76 161.94 310.27 158.3 320.71 153.63 331.05 148.02 341.32 141.38 351.49 134.44 361.59 127.69 371.63 121.29 381.64 116.11 391.62 112.64 401.6 110.77 411.58 111.08 421.56 113.55" stroke-dasharray="0 11" transform="rotate(4.04, 400, 400)" opacity="0.71"></path><path d="M416.8 124.23C426.28 128.03 435.35 133.12 443.98 138.97 452.56 144.66 460.63 150.08 468.11 154.83 475.47 158.25 482.17 160.59 488.13 161.9 502.69 160.11 518.18 160.01 522.67 164.45 526.5 168.98 530.97 174.91 536.4 182.08 543.28 190.13 551.55 199.07 561.35 208.64 572.67 218.53 585.32 228.65 598.97 238.8 613.08 248.77 627.09 258.53 640.21 268 651.76 277.05 660.96 285.77 667.09 294.2 670.12 302.19 669.56 309.98 665.54 317.65 659.23 324.99 650.9 332.34 641.71 339.79 633.56 347.05 627.1 354.52 623.51 362.27 624 369.93 628.46 377.94 636.67 386.35 648.15 394.73 661.32 403.55 674.54 412.84 686.38 422.13 694.71 431.68 698.52 441.46 697.86 451.25 692.32 461.24 682.68 471.37 670.27 481.46 656.15 491.6 641.8 501.7 628.66 511.61 617.61 521.31 609.37 530.62 604.51 539.52 602.72 547.78 603.52 555.22 620.29 575.22 608.36 577.35 594.18 577.03 583.08 578.5 571.15 581.37 558.78 586.02 546.15 592.88 533.61 601.72 521.38 612.39 509.4 624.62 497.92 637.75 486.99 650.99 476.43 663.64 466.36 674.7 456.73 683.25 447.37 688.92 438.3 690.98 429.45 689.19 420.73 684.32 412.1 676.41 403.5 666.34 394.95 655.85 386.35 645.59 377.73 636.81 369.1 631.09 360.63 628.65 352.36 629.58 344.12 634.03 336.11 640.87 328.39 649.12 320.75 658.27 313.46 666.64 306.59 673.23 299.82 677.81 293.51 679.25 287.68 677.37 281.93 672.59 276.63 664.8 271.76 654.59 266.82 642.73 262.18 629.73 257.74 616.36 252.97 603.24 248.2 590.87 243.28 579.63 237.77 569.86 231.94 561.57 225.73 554.7 218.82 549.4 211.53 545.21 203.95 541.82 195.95 539.4 187.94 537.25 180.15 535.05 172.57 533.15 165.65 530.78 159.66 527.79 152.47 522.72 145.53 508.11 145.3 498.67 145.64 491.91 146.32 484.52 147.04 476.58 147.04 468.53 146.59 460.04 145.58 451.19 143.54 442.31 141.07 433.13 138.39 423.69 135.39 414.25 132.96 404.79 131.41 395.32 130.59 385.84 131.12 376.3 133.06 366.72 135.98 357.06 140.14 347.3 145.27 337.41 150.77 327.42 156.66 317.26 162.64 306.96 168.12 296.57 173.24 286.06 177.87 275.5 181.61 264.99 184.87 254.57 187.75 244.39 190 234.54 192.23 225.16 194.64 216.47 197.01 208.44 199.96 201.34 203.61 195.34 207.71 190.2 212.71 186.24 218.59 183.47 225.08 181.37 232.41 180.21 240.45 179.79 249 179.36 258.09 179.1 267.57 178.71 277.35 177.43 287.34 175.46 297.45 172.62 307.67 168.42 317.9 163.3 328.06 157.39 338.25 150.64 348.35 143.74 358.33 137.17 368.31 131.05 378.18 126.18 387.93 122.99 397.68 121.34 407.31 121.76 416.79 124.23" stroke-dasharray="5 8" transform="rotate(8.08, 400, 400)" opacity="0.72"></path><path d="M408.82 134.91C417.74 138.63 426.17 143.59 434.08 149.31 441.94 154.94 449.24 160.41 455.94 165.31 465.54 170.38 481.44 173.79 487.85 173.02 493.93 171.36 505.56 171.22 512.25 174.2 517.77 177.56 524.12 182.25 531.52 188.18 540.21 195.03 550.13 202.88 561.26 211.52 573.43 220.67 586.4 230.26 599.75 240.09 612.95 249.97 625.47 259.83 636.59 269.55 645.86 279.04 652.62 288.29 656.36 297.29 657.3 305.95 655.12 314.4 650.08 322.68 643.41 330.67 635.38 338.58 627.02 346.48 620.04 354.19 614.92 362 612.59 369.96 614.04 377.82 619.04 385.92 627.31 394.29 638.41 402.62 650.91 411.29 663.37 420.28 674.58 429.28 682.64 438.42 686.65 447.65 686.64 456.87 682.17 466.15 673.81 475.4 662.7 484.58 649.67 493.65 635.98 502.48 622.94 511.09 611.39 519.31 602.06 526.98 593.76 537.5 593.6 553.45 598.74 558.4 607.92 562.13 601.55 562.93 591.13 564.91 582.38 568.11 572.47 572.77 561.77 579.1 550.5 587.36 538.92 597.25 527.31 608.51 515.66 620.82 504.24 633.51 493.17 645.86 482.29 657.28 471.82 666.88 461.76 673.93 451.9 678.22 442.39 679.16 433.2 676.62 424.13 671.42 415.29 663.58 406.64 653.92 398.03 644.02 389.56 634.39 381.22 626.13 372.88 620.65 364.85 618.1 357.14 618.6 349.44 622.34 342.08 628.34 335.09 635.77 328.12 644.29 321.55 652.36 315.39 659.07 306.4 665.51 290.36 660.38 283.12 649.06 278.17 638.86 273.37 627.2 268.6 614.73 263.4 602.03 258.06 589.56 252.49 577.77 246.32 566.98 239.8 557.35 232.93 548.94 225.5 541.91 217.8 536 209.95 531.01 201.9 527.09 194.02 523.68 186.53 520.53 176.28 516.54 161.73 507.34 158.04 501.4 156.57 494.64 157.74 477.49 158.78 467.23 158.7 460.1 158.14 452.45 157.01 444.32 154.88 436.15 152.32 427.57 149.56 418.59 146.48 409.61 143.94 400.47 142.23 391.2 141.2 381.93 141.47 372.51 143.1 362.95 145.71 353.37 149.57 343.63 154.45 333.76 159.8 323.85 165.65 313.82 171.7 303.7 177.41 293.61 182.86 283.51 187.9 273.5 192.11 263.69 195.83 254.12 199.11 244.95 201.66 236.23 204.04 228.11 206.41 220.78 209.79 211.3 219.25 198.5 225.99 195.22 231.24 193.79 237.3 193.05 244.09 192.78 251.38 192.26 259.29 191.7 267.7 190.82 276.48 188.96 285.59 186.36 294.93 182.9 304.48 178.19 314.13 172.68 323.8 166.54 333.56 159.75 343.27 152.96 352.88 146.61 362.52 140.8 372.04 136.26 381.38 133.35 390.73 131.92 399.9 132.44 408.81 134.91" stroke-dasharray="0 10" transform="rotate(12.12, 400, 400)" opacity="0.16"></path><path d="M399.17 145.59C407.5 149.22 415.35 154.04 422.67 159.61 429.97 165.17 436.74 170.64 442.96 175.66 451.98 181.16 467.57 185.87 474.47 185.65 481.51 184.21 496.65 183.07 505.74 184.84 512.9 187.13 520.93 190.65 529.93 195.33 539.94 200.9 550.89 207.53 562.66 215.05 574.96 223.18 587.53 231.93 599.93 241.11 611.69 250.52 622.31 260.11 631.22 269.73 638.15 279.29 642.57 288.74 644.18 298.03 643.39 307.12 639.97 316.02 634.3 324.75 627.6 333.25 620.09 341.64 612.72 349.93 606.96 358.07 603.13 366.21 601.97 374.37 604.26 382.45 609.69 390.64 617.97 398.97 628.65 407.27 640.49 415.75 652.2 424.4 662.79 433.06 670.56 441.7 674.71 450.29 675.29 458.84 671.8 467.3 664.66 475.57 654.85 483.75 642.97 491.65 630.11 499.17 617.42 506.47 605.66 513.24 595.58 519.38 584.96 539.34 595.04 546.86 595 547.75 593.22 549.29 589.7 551.57 584.57 554.88 578.24 559.73 570.59 565.98 561.91 573.72 552.49 583.02 542.44 593.56 532.05 605.03 521.37 617.06 510.64 629.04 500.03 640.3 489.42 650.38 479.06 658.51 469.01 664.1 459.06 667.12 449.43 667.06 440.14 663.9 430.93 658.46 422.01 650.76 413.37 641.54 404.77 632.22 396.41 623.21 388.29 615.45 380.17 610.2 372.46 607.58 365.15 607.68 357.83 610.76 350.91 615.95 344.39 622.58 337.85 630.4 331.71 638.06 325.95 644.75 317.39 652.01 301.63 651.04 294.13 642.44 288.87 634.03 283.63 623.93 278.3 612.69 272.51 600.84 266.5 588.77 260.22 576.93 253.41 565.64 246.29 555.15 238.9 545.6 231.11 537.14 223.2 529.7 215.32 523.19 207.43 517.69 199.9 512.87 192.91 508.51 183.66 503.01 171.37 492.41 168.66 486.5 167.88 480.17 169.58 464.65 170.55 455.38 170.36 448.96 169.67 441.98 168.41 434.48 166.19 426.95 163.56 418.93 160.73 410.45 157.59 401.96 154.96 393.23 153.1 384.29 151.87 375.37 151.88 366.24 153.19 356.94 155.47 347.66 158.99 338.22 163.56 328.67 168.68 319.16 174.41 309.58 180.46 300.01 186.31 290.57 192.02 281.24 197.43 272.12 202.11 263.31 206.32 254.86 210.07 246.94 213.07 239.51 215.76 232.77 218.3 226.85 221.59 219.38 229.55 209.94 234.96 207.74 241.56 206.43 258.89 204.48 269.41 202.5 276.98 200.02 284.99 196.79 293.31 192.75 301.89 187.6 310.67 181.78 319.55 175.49 328.58 168.73 337.63 162.11 346.62 156.02 355.68 150.56 364.63 146.35 373.41 143.73 382.22 142.51 390.82 143.14 399.16 145.58" stroke-dasharray="6 8" transform="rotate(16.16, 400, 400)" opacity="0.88"></path><path d="M389.67 156.27C397.45 159.8 404.8 164.47 411.71 169.88 418.61 175.34 425.08 180.78 431.13 185.88 437.2 190.06 442.9 193.48 448.3 196.05 456.48 197.75 472.84 197.11 481.69 196.12 488.26 195.49 495.35 195.5 503.08 196.31 511.59 197.7 520.86 200.15 530.91 203.67 541.62 207.98 552.93 213.33 564.63 219.6 576.38 226.55 587.93 234.22 598.85 242.46 608.79 251.08 617.29 260.04 623.91 269.18 628.6 278.44 630.9 287.73 630.7 296.97 628.55 306.15 624.3 315.2 618.36 324.12 611.91 332.91 605.14 341.57 598.85 350.1 594.32 358.52 591.73 366.87 591.64 375.15 594.66 383.38 600.42 391.59 608.63 399.81 618.87 408.02 630.04 416.26 641.03 424.53 651.01 432.79 658.47 440.89 662.72 448.77 663.81 456.63 661.21 464.24 655.24 471.52 646.69 478.71 636.02 485.5 624.11 491.8 611.99 497.92 600.31 503.45 589.79 508.33 571.6 524.15 578.03 532.48 579.48 535.23 579.27 538.21 577.62 542.06 574.53 546.98 570.43 553.3 565 560.86 558.44 569.64 551.09 579.6 542.91 590.4 534.14 601.7 524.93 613.15 515.41 624.18 505.76 634.21 495.97 642.88 486.22 649.56 476.63 653.78 467.04 655.63 457.66 654.7 448.56 651.04 439.49 645.45 430.7 637.95 422.2 629.18 413.72 620.45 405.51 612.05 397.59 604.77 389.66 599.76 382.17 597.08 375.11 596.84 368.03 599.29 361.34 603.72 355.05 609.54 348.69 616.63 342.69 623.79 337.01 630.31 328.44 638.09 312.05 640.66 303.91 634.64 298.16 628.04 292.31 619.65 286.32 609.89 279.89 599.24 273.23 588 266.32 576.59 258.98 565.33 251.44 554.48 243.73 544.26 235.83 534.81 227.95 526.18 220.28 518.36 212.79 511.44 205.79 505.22 199.48 499.57 191.4 492.28 181.43 479.26 179.63 472.77 179.45 466.25 181.49 451.24 182.31 442.55 182 436.57 181.16 430.08 179.77 423.09 177.48 416.08 174.78 408.57 171.9 400.59 168.72 392.61 166.01 384.36 164.02 375.89 162.61 367.43 162.36 358.78 163.35 349.97 165.27 341.21 168.42 332.32 172.64 323.39 177.47 314.56 182.99 305.73 188.94 297.02 194.84 288.5 200.73 280.2 206.43 272.23 211.53 264.6 216.23 257.43 220.49 250.86 225.58 242.08 233.58 229.13 237.22 225.08 240.88 222.33 250.62 219.57 257.06 218.6 261.89 217.37 267.32 215.79 273.3 213.68 279.62 210.57 286.41 206.74 293.59 202.17 301.02 196.66 308.74 190.61 316.65 184.26 324.73 177.6 332.91 171.2 341.1 165.43 349.38 160.32 357.62 156.46 365.74 154.12 373.89 153.11 381.88 153.83 389.66 156.26" stroke-dasharray="8 9" transform="rotate(20.200000000000003, 400, 400)" opacity="0.43"></path><path d="M382.14 166.95C389.41 170.37 396.38 174.88 403.04 180.12 409.7 185.45 416.08 190.84 422.21 195.98 428.39 200.34 434.38 204.04 440.26 206.99 446.31 208.83 452.37 209.96 458.54 210.5 465.05 210.22 471.85 209.72 479.03 209.21 486.72 208.5 494.95 208.21 503.76 208.52 513.12 209.2 523.06 210.75 533.51 213.23 544.27 216.37 555.25 220.48 566.21 225.49 576.84 231.16 586.89 237.61 595.97 244.71 603.88 252.28 610.2 260.31 614.61 268.67 617.26 277.27 617.77 286.04 616.14 294.88 613.03 303.77 608.32 312.65 602.44 321.44 596.51 330.21 590.62 338.87 585.48 347.4 582.15 355.88 580.71 364.25 581.58 372.49 585.21 380.71 591.22 388.83 599.28 396.85 609.07 404.87 619.58 412.8 629.86 420.63 639.25 428.46 646.39 435.99 650.69 443.19 652.21 450.37 650.42 457.18 645.53 463.57 638.21 469.88 628.76 475.72 617.91 481.04 606.53 486.22 595.18 490.82 584.53 494.8 563.74 504.21 555.3 513.74 557.63 516.45 560.65 520.28 563.16 532.18 561.46 541.15 559.17 548.64 555.68 557.15 551.09 566.57 545.78 576.79 539.54 587.49 532.56 598.29 525.09 608.89 517.11 618.79 508.78 627.48 500.22 634.74 491.49 640.01 482.73 642.96 473.9 643.77 465.13 642.1 456.51 638.05 447.89 632.4 439.45 625.15 431.24 616.87 423.05 608.72 415.07 600.9 407.34 594.09 399.62 589.32 392.3 586.61 385.36 586.05 378.4 587.94 371.79 591.63 365.5 596.68 359.14 603.01 353.06 609.6 347.21 615.82 341.22 621.63 335.38 626.04 329.65 628.71 323.69 629.81 317.73 628.76 311.73 625.63 305.41 620.79 298.95 614.14 292.32 606.01 285.34 596.82 278.15 586.76 270.79 576.2 263.15 565.45 255.42 554.76 247.67 544.36 239.9 534.41 232.33 525.03 225.1 516.29 218.21 508.24 211.93 500.83 206.42 494 201.57 487.8 197.65 482.02 194.75 476.53 191.94 468.99 191.26 454.33 192.47 446.71 193.44 438.92 193.11 421.54 191.1 411.82 188.73 405.19 185.99 398.13 183.07 390.64 179.87 383.15 177.1 375.43 175 367.53 173.41 359.65 172.92 351.61 173.59 343.48 175.15 335.41 177.89 327.29 181.71 319.21 186.19 311.25 191.43 303.4 197.18 295.75 203.03 288.33 208.99 281.21 214.89 274.5 220.33 268.12 225.46 262.27 230.21 257.02 236.12 250.12 245.4 240.37 249.31 237.46 257.03 233.98 272.54 228.14 279.64 224.25 284.79 220.54 290.42 216.16 296.47 211.16 302.73 205.37 309.34 199.2 316.21 192.86 323.23 186.38 330.44 180.26 337.76 174.83 345.16 170.1 352.6 166.59 360.02 164.54 367.47 163.73 374.86 164.54 382.13 166.94" stroke-dasharray="5 7" transform="rotate(24.24, 400, 400)" opacity="0.73"></path><path d="M378.01 177.62C384.84 180.94 391.53 185.28 398.06 190.33 404.61 195.5 411.03 200.81 417.37 205.95 423.79 210.44 430.19 214.38 436.64 217.67 443.26 219.96 450.05 221.57 457.06 222.58 464.38 222.76 472.04 222.62 480.1 222.34 488.55 221.72 497.44 221.33 506.78 221.34 516.43 221.52 526.41 222.38 536.6 224 546.78 226.12 556.84 229.1 566.53 232.92 575.62 237.31 583.86 242.5 590.92 248.37 596.74 254.72 600.97 261.63 603.4 268.97 604.31 276.62 603.39 284.56 600.73 292.68 597.06 300.96 592.24 309.31 586.71 317.67 581.48 326.08 576.59 334.44 572.62 342.7 570.45 350.97 570.07 359.13 571.77 367.14 575.9 375.15 582.06 383.02 589.94 390.73 599.25 398.45 609.1 406 618.69 413.36 627.49 420.72 634.3 427.7 638.6 434.27 640.49 440.83 639.42 446.96 635.53 452.63 629.4 458.25 621.16 463.38 611.42 468 600.94 472.56 590.15 476.59 579.65 480.11 570.02 483.59 561.53 486.61 554.42 489.22 544.2 496.89 543.71 510.64 545.35 517.5 546.34 523.22 546.63 529.76 546.09 537.16 545.08 545.47 543.08 554.54 540.1 564.2 536.56 574.3 532.1 584.54 526.85 594.56 521.13 604.11 514.79 612.75 507.95 620.06 500.83 625.92 493.37 629.87 485.71 631.66 477.92 631.57 470.04 629.29 462.15 624.96 454.22 619.33 446.35 612.37 438.59 604.58 430.82 597.01 423.19 589.76 415.7 583.41 408.22 578.88 401.05 576.16 394.18 575.33 387.28 576.7 380.65 579.7 374.25 583.99 367.77 589.57 361.48 595.52 355.32 601.33 349.03 607.01 342.8 611.64 336.59 614.88 330.17 616.89 323.7 617.07 317.14 615.39 310.31 612.19 303.35 607.26 296.25 600.81 288.9 593.23 281.42 584.59 273.86 575.22 266.19 565.4 258.55 555.31 251.05 545.23 243.68 535.28 236.65 525.64 230.09 516.42 223.98 507.67 218.55 499.42 213.93 491.68 209.96 484.45 206.89 477.65 204.78 471.22 202.92 462.29 203.28 445.56 204.58 437.32 205.18 431.92 205.64 426.34 205.8 420.52 205.17 414.75 204.03 408.68 202.4 402.31 199.96 395.94 197.17 389.24 194.24 382.22 191.03 375.2 188.22 368.03 186.03 360.75 184.3 353.5 183.57 346.18 183.93 338.85 185.11 331.58 187.45 324.36 190.83 317.26 194.9 310.29 199.77 303.51 205.25 297.01 210.93 290.73 216.85 284.82 222.83 279.36 228.51 274.19 233.98 269.54 239.16 265.48 251.29 256.48 264.98 248.71 268.95 247.24 272.9 245.23 282.49 239.02 288.36 234.18 292.56 229.91 297.21 225.07 302.26 219.73 307.47 213.76 313.04 207.56 318.93 201.33 324.93 195.08 331.2 189.29 337.65 184.24 344.17 179.9 350.83 176.75 357.58 174.98 364.34 174.37 371.16 175.26 378 177.62" stroke-dasharray="4 4" transform="rotate(28.28, 400, 400)" opacity="0.75"></path><path d="M378.07 188.3C384.54 191.5 391.02 195.66 397.49 200.5 403.98 205.51 410.5 210.69 417.07 215.8 423.73 220.37 430.5 224.51 437.43 228.09 444.52 230.78 451.85 232.85 459.44 234.34 467.27 235.02 475.42 235.31 483.91 235.37 492.62 234.98 501.65 234.67 510.91 234.57 520.25 234.48 529.68 234.87 539.03 235.85 548.11 237.16 556.79 239.19 564.85 241.95 572.15 245.18 578.44 249.15 583.48 253.79 587.34 258.89 589.7 264.57 590.45 270.75 590 277.27 588.05 284.16 584.78 291.33 580.9 298.71 576.28 306.27 571.34 313.91 566.96 321.67 563.14 329.45 560.31 337.19 559.23 344.98 559.8 352.69 562.21 360.27 566.72 367.88 572.95 375.34 580.59 382.62 589.39 389.92 598.6 397.02 607.52 403.89 615.74 410.77 622.21 417.24 626.48 423.29 628.67 429.33 628.23 434.94 625.26 440.1 620.23 445.25 613.18 449.94 604.6 454.19 595.11 458.44 585.06 462.26 574.97 465.71 565.36 469.21 556.49 472.41 548.65 475.38 539.49 480.1 529.41 490.22 527.74 496.26 527.78 501.06 528.14 506.41 528.56 512.38 529.26 519.14 529.61 526.58 529.45 534.68 529.11 543.42 528.04 552.63 526.2 562.14 523.97 571.78 520.94 581.27 517.16 590.29 513 598.65 508.18 605.95 502.78 611.88 497.11 616.41 491 619.14 484.54 619.91 477.93 619.05 471.07 616.29 464.07 611.79 457 606.26 449.84 599.63 442.65 592.35 435.45 585.33 428.25 578.63 421.07 572.73 413.89 568.45 406.9 565.73 400.09 564.67 393.27 565.57 386.59 567.93 380.05 571.49 373.44 576.31 366.92 581.6 360.45 586.92 353.86 592.33 347.27 596.99 340.64 600.57 333.85 603.26 326.98 604.42 320.02 603.99 312.88 602.25 305.64 598.91 298.31 594.11 290.86 588.19 283.38 581.13 275.93 573.16 268.52 564.58 261.27 555.49 254.28 546.14 247.55 536.68 241.27 527.27 235.56 518.05 230.33 509.05 225.83 500.4 222.13 492.12 219.04 484.21 216.79 476.68 215.39 469.5 214.47 462.67 214.25 456.1 214.62 449.75 215.09 443.64 215.86 437.64 216.75 431.69 217.24 425.87 217.53 420.01 217.49 414.06 216.68 408.17 215.4 402.12 213.64 395.91 211.15 389.71 208.35 383.31 205.41 376.71 202.22 370.11 199.39 363.48 197.12 356.85 195.26 350.24 194.31 343.66 194.37 337.17 195.19 330.74 197.1 324.44 200.03 318.34 203.64 312.36 208.09 306.65 213.19 301.27 218.6 296.07 224.36 291.26 230.29 286.91 236.07 282.77 241.77 279.13 247.28 276 254.69 271.84 267.17 266 272.38 263.99 280.92 259.59 293.89 249.15 299 243.4 302.55 238.67 306.48 233.47 310.78 227.9 315.15 221.87 319.89 215.73 324.96 209.69 330.09 203.75 335.53 198.33 341.23 193.68 346.97 189.74 352.93 186.94 359.09 185.45 365.25 185.02 371.58 185.98 378.06 188.3" stroke-dasharray="4 3" transform="rotate(32.32, 400, 400)" opacity="0.29"></path><path d="M382.3 198.98C388.48 202.05 394.78 206.02 401.19 210.64 407.62 215.46 414.19 220.49 420.91 225.52 427.7 230.13 434.68 234.4 441.87 238.22 449.18 241.27 456.74 243.76 464.54 245.73 472.48 246.91 480.67 247.69 489.07 248.17 497.53 248.13 506.14 248.04 514.78 248.03 523.3 247.87 531.67 248.02 539.73 248.59 547.36 249.33 554.39 250.63 560.63 252.54 568.28 256.23 576.18 267.33 576.05 274.56 574.62 279.87 572.06 285.61 568.55 291.69 564.79 298 560.64 304.57 556.47 311.31 553.03 318.19 550.28 325.17 548.57 332.17 548.47 339.26 549.87 346.32 552.87 353.31 557.66 360.33 563.87 367.25 571.22 374.01 579.52 380.79 588.08 387.4 596.35 393.79 604 400.19 610.12 406.21 614.32 411.85 616.8 420.11 607.75 434.74 597.38 441.17 588.97 445.38 579.81 449.31 570.34 452.99 561.03 456.79 552.1 460.45 543.86 464.04 536.59 467.89 530.32 471.81 525.09 475.9 521.07 480.41 518 485.25 515.74 490.48 514.43 496.29 513.62 502.61 513.1 509.47 513.06 516.91 512.97 524.87 512.65 533.27 512.41 542.04 511.7 551.03 510.44 560.04 509.01 568.93 506.94 577.44 504.22 585.29 499.45 595.35 486.65 607.02 478.89 607.73 473.43 606.24 467.63 603.12 461.54 598.55 455.38 593.17 449.01 586.92 442.47 580.15 435.91 573.68 429.22 567.52 422.42 562.06 415.62 558.01 408.87 555.32 402.19 554.07 395.5 554.54 388.84 556.32 382.22 559.2 375.56 563.27 368.9 567.87 362.22 572.64 355.46 577.65 348.65 582.17 341.78 585.91 334.81 589.03 327.77 590.93 320.65 591.5 313.46 591.01 306.23 589.09 298.98 585.83 291.74 581.52 284.57 576.06 277.54 569.62 270.67 562.47 264.06 554.66 257.82 546.39 251.93 537.82 246.55 529.06 241.78 520.28 237.52 511.53 233.96 502.92 231.17 494.54 228.9 486.36 227.39 478.47 226.6 470.87 226.17 463.51 226.29 456.42 226.87 449.57 227.44 442.93 228.18 436.45 228.95 430.12 229.28 423.92 229.37 417.78 229.12 411.67 228.13 405.63 226.7 399.56 224.85 393.46 222.31 387.37 219.5 381.22 216.58 375.01 213.42 368.8 210.59 362.67 208.27 356.65 205.72 347.71 206.14 330.72 209.34 322.83 212.46 317.75 216.43 312.98 221.09 308.57 226.13 304.28 231.6 300.38 237.36 296.91 243.1 293.56 248.87 290.64 254.57 288.15 262.52 284.71 276.51 279.43 282.54 277.24 287.7 274.7 297.05 268.37 301.58 264.09 305.99 258.44 315.81 244.12 321.41 235.71 325.24 229.72 329.4 223.74 333.88 217.97 338.37 212.39 343.19 207.38 348.3 203.15 356.13 198.4 373.15 196.2 382.29 198.98" stroke-dasharray="6 5" transform="rotate(36.36, 400, 400)" opacity="0.92"></path><path d="M389.91 209.66C395.84 212.59 401.95 216.36 408.24 220.76 414.55 225.36 421.05 230.22 427.74 235.13 441.26 243.84 455.67 251.19 470.81 256.69 486.07 259.35 501.74 260.68 517.08 261.47 531.42 261.23 544.02 262.04 553.62 264.49 560.28 267.74 562.69 273.21 560.56 280.7 556.19 289.3 549.39 299.52 542.22 310.83 538.38 322.74 538.44 335.19 543.73 347.7 548.7 354.02 554.82 360.29 561.84 366.48 569.61 372.68 577.55 378.76 585.18 384.7 592.28 390.64 598.03 396.27 602.13 401.61 604.72 406.95 605.3 411.99 603.88 416.75 596.22 426.34 582.54 435.03 565.57 443.11 548.21 451.84 532.22 460.71 519.08 470.28 509.79 481.42 503.63 494.04 499.68 508.32 498.07 524.14 496.57 540.92 494.15 557.53 491.75 572.9 487.38 585.37 480.95 593.16 473.96 596.31 465.08 593.54 454.67 585.27 449.38 580.11 443.77 574.25 437.89 567.99 432 562.07 425.86 556.42 419.5 551.38 413.14 547.58 406.72 544.93 400.26 543.52 393.8 543.62 387.29 544.87 380.73 547.11 367.56 554.75 354.11 563.47 340.43 571.02 326.65 577.12 312.71 578.89 298.96 575.95 285.62 569.4 273.11 558.77 262.13 545.32 252.63 530.19 245.47 514.07 241.08 497.96 238.37 482.03 237.98 466.83 239.33 452.57 240.22 438.84 240.95 425.81 240.67 413.36 239.52 407.22 237.95 401.16 236 395.17 233.44 389.2 230.64 383.27 227.75 377.4 223.23 368.69 216.76 352.28 215.62 344.66 216.56 334.73 221.21 325.94 229.02 318.52 238.51 311.34 249.55 305.6 261.11 301.26 271.91 296.78 282.06 293.13 291.35 289.85 299.05 285.21 306.2 279.85 313.16 273.28 319.2 264.45 325.76 254.26 333.14 243.22 340.27 231.49 348.54 220.82 358 212.66 365.22 208.5 381.16 206.91 389.9 209.66" stroke-dasharray="2 7" transform="rotate(40.400000000000006, 400, 400)" opacity="0.81"></path><path d="M399.44 220.34C410.81 226.45 423.01 235.03 435.89 244.63 448.86 253.31 462.51 261.01 476.52 267.19 490.34 270.83 504.01 273.14 516.74 274.68 532.88 275.28 547.68 281.59 544.39 289.24 539.9 295.74 534.08 303.86 528.7 313.18 526.79 323.04 528.54 333.69 534.77 344.69 545.94 355.86 559.87 367.1 574.01 378.11 586.31 389.13 592.93 399.37 592.79 408.88 586.99 418.52 575.53 427.74 560.53 436.81 544.39 446.54 528.57 456.75 514.58 467.81 503.45 480.11 495 493.67 488.76 508.37 484.94 523.84 481.87 539.52 478.64 554.27 475.98 567.31 472.05 577.21 466.55 582.62 460.81 583.98 453.37 580.25 444.35 571.95 435.15 561.99 424.6 550.83 412.86 540.7 401.12 534.82 388.84 533.08 376.21 535.23 363.6 541.47 350.62 549.01 337.48 556.02 324.48 562.39 311.52 565.41 299.05 564.54 287.26 560.7 276.57 553.03 267.58 542.42 260.05 529.92 254.74 515.88 251.89 501.27 250.27 486.36 250.48 471.7 251.93 457.68 252.6 443.93 252.89 430.85 252.14 418.49 248.87 406.29 244.26 394.6 238.92 383.49 232.77 372.38 228.32 362.32 226.45 353.39 226.69 344.49 230.36 336.79 237.06 330.38 245.55 323.98 255.84 318.77 267.02 314.57 277.93 309.91 288.59 305.67 298.63 301.4 307.4 295.69 315.58 289.14 323.39 281.46 330.23 271.92 337.26 261.39 344.79 250.47 351.92 239.33 359.94 229.51 368.99 222.24 377.93 217.52 388.05 216.79 399.43 220.33" stroke-dasharray="6 5" transform="rotate(44.44, 400, 400)" opacity="0.44"></path><path d="M409.07 231.02C419.93 236.79 431.46 244.86 443.46 254.02 455.46 262.57 467.8 270.48 480.07 277.19 491.96 281.72 503.19 285.01 513.08 287.42 528.65 291.52 521.74 307.95 515.98 318.67 515.87 326.64 519.05 335.57 525.97 345.12 536.89 354.8 549.89 364.87 562.84 375.11 574.22 385.34 580.73 395.25 581.45 404.86 577.32 414.63 567.98 424.39 555.05 434.34 540.49 444.86 525.41 456.03 511.25 468.02 499 480.86 488.81 494.61 480.59 508.94 474.58 523.39 469.66 537.43 465.13 549.99 459.38 564.31 443.42 568.98 432.09 558.64 423.97 549.39 414.5 539.26 403.78 530.02 393.05 524.45 381.66 522.34 369.87 523.56 358.15 528.48 346.12 534.79 334.07 541.04 322.31 547.29 310.83 551.08 300.08 551.76 290.12 550.18 281.43 545.17 274.49 537.31 268.81 527.59 265.13 516.01 263.54 503.41 262.71 490.18 263.25 476.74 264.59 463.59 264.92 450.46 264.73 437.83 263.5 425.89 260 414.03 255.34 402.79 250.09 392.28 244.11 381.77 239.63 372.44 237.42 364.27 237.02 356.08 239.74 349.03 245.3 343.1 252.66 337 261.98 331.79 272.46 327.24 283.12 322.04 293.9 316.93 304.36 311.54 313.93 304.77 323.01 297.17 331.66 288.62 339.43 278.66 347.18 268.1 355.14 257.54 362.64 247.15 370.76 238.26 379.67 231.9 388.44 227.9 398.21 227.54 409.07 231.02" stroke-dasharray="1 11" transform="rotate(48.48, 400, 400)" opacity="0.92"></path><path d="M416.98 241.7C427.25 247.11 437.88 254.66 448.67 263.32 459.39 271.63 470.05 279.6 480.25 286.69 489.97 291.97 498.68 296.17 505.83 299.48 515.08 304.89 507.25 318.54 504.11 327.18 505.61 333.59 509.94 341.03 517.31 349.3 527.85 357.65 539.88 366.65 551.67 376.17 562.13 385.69 568.46 395.29 569.88 404.96 567.21 414.76 559.86 424.88 549.03 435.38 536.29 446.31 522.43 457.91 508.72 470.16 496.06 482.86 484.8 496.07 475.12 509.33 467.24 522.24 460.53 534.25 454.53 544.45 447 555.25 430.31 555.58 419.73 545.33 412.29 536.85 403.7 527.71 393.97 519.34 384.24 514.1 373.92 511.7 363.26 512.11 352.72 515.79 342.01 520.86 331.46 526.19 321.27 532 311.57 536.1 302.78 537.83 294.76 537.96 288.05 535.2 283 529.82 278.95 522.8 276.59 513.79 275.91 503.48 275.58 492.37 276.18 480.66 277.23 468.88 277.13 456.93 276.42 445.22 274.75 434.03 271.05 422.86 266.39 412.24 261.26 402.34 255.47 392.43 251.02 383.65 248.55 375.96 247.58 368.2 249.39 361.42 253.82 355.52 259.97 349.34 268.13 343.76 277.65 338.53 287.68 332.58 298.18 326.5 308.67 320.03 318.65 312.35 328.32 303.95 337.63 294.86 346.23 284.78 354.69 274.47 363.15 264.51 371.19 255 379.58 247.1 388.47 241.63 397.22 238.34 406.7 238.31 416.98 241.7" stroke-dasharray="7 1" transform="rotate(52.52, 400, 400)" opacity="0.58"></path><path d="M421.65 252.38C431.23 257.42 440.81 264.42 450.19 272.53 459.46 280.5 468.32 288.38 476.39 295.67 487.21 304.02 500.27 314.7 501.47 318.4 500.06 321.4 493.75 330.92 493.12 338.16 495.97 343.43 501.18 349.72 508.76 356.94 518.79 364.19 529.84 372.28 540.5 381.13 550.05 389.99 556.12 399.23 558.09 408.78 556.67 418.44 551.14 428.58 542.34 439.18 531.57 450.03 519.28 461.44 506.55 473.26 494.19 485.19 482.57 497.23 472.06 508.9 462.85 519.89 454.69 529.67 447.35 537.5 440.97 543.48 434.82 546.66 428.57 546.65 422.68 544.48 416.25 539.44 409.13 532.06 402.04 524.36 394.1 516.2 385.31 508.66 376.52 503.76 367.34 501.16 358.01 500.87 348.8 503.42 339.62 507.29 330.79 511.61 322.33 516.73 314.51 520.73 307.67 523.02 299.04 523.8 289.67 512.08 288.84 500.8 288.7 491.99 289.14 482.31 289.76 472.22 289.17 461.86 287.95 451.44 285.87 441.29 282.03 431.1 277.4 421.28 272.43 412.01 266.88 402.73 262.5 394.39 259.83 386.95 258.38 379.42 259.36 372.63 262.7 366.47 267.61 359.99 274.49 353.84 282.84 347.81 291.92 341.1 301.73 334.13 311.82 326.76 321.76 318.44 331.61 309.57 341.21 300.28 350.35 290.42 359.31 280.62 368.16 271.45 376.67 262.93 385.31 256.05 394.16 251.47 402.91 248.83 412.06 249.09 421.65 252.38" stroke-dasharray="3 4" transform="rotate(56.56, 400, 400)" opacity="0.53"></path><path d="M422.19 263.05C430.99 267.72 439.43 274.14 447.37 281.66 455.2 289.19 462.33 296.84 468.5 304.16 476.58 313.19 485.07 326.23 485.25 331.03 484.12 334.8 481.35 344.21 483 350.7 486.91 355.28 492.72 360.79 500.3 367.21 509.71 373.64 519.76 380.97 529.33 389.18 537.98 397.4 543.74 406.16 546.09 415.35 545.71 424.6 541.79 434.38 534.92 444.56 526.16 454.84 515.66 465.49 504.32 476.27 492.84 486.9 481.54 497.32 470.87 507.04 461.01 515.93 451.95 523.46 443.64 529.07 436.11 533.04 429 534.58 422.08 533.43 415.53 530.68 408.82 525.66 401.79 518.83 394.83 511.94 387.39 504.71 379.45 497.98 371.5 493.44 363.46 490.71 355.5 489.84 347.65 491.38 340.04 494.11 332.94 497.39 315.9 506.54 302.45 503.11 302.11 495.04 301.9 488.46 302 480.85 302.08 472.58 300.98 464.01 299.28 455.11 296.84 446.18 292.91 437.19 288.37 428.31 283.6 419.71 278.32 411.11 274.07 403.17 271.27 395.87 269.43 388.48 269.68 381.56 272 375.02 275.69 368.18 281.25 361.44 288.28 354.68 296.15 347.35 304.94 339.74 314.23 331.78 323.66 323.16 333.21 314.19 342.68 305.06 351.93 295.71 361.04 286.67 369.97 278.45 378.7 271 387.4 265.15 396.07 261.42 404.67 259.39 413.39 259.9 422.19 263.05" stroke-dasharray="4 1" transform="rotate(60.599999999999994, 400, 400)" opacity="0.78"></path><path d="M418.51 273.73C426.44 278 433.76 283.85 440.38 290.72 446.9 297.73 452.57 305.01 457.23 312.18 463.3 321.56 469.19 336.5 469.33 342.4 469.13 347.18 470.15 357.4 473.72 363.66 478.4 367.93 484.53 372.99 491.91 378.87 500.61 384.72 509.66 391.43 518.18 399.01 525.94 406.59 531.31 414.73 533.91 423.29 534.35 431.87 531.82 440.89 526.71 450.19 519.88 459.45 511.29 468.87 501.61 478.16 491.46 487.15 481.07 495.67 470.87 503.3 461.06 510.1 451.73 515.51 443 519.14 434.8 521.44 427.05 521.68 419.65 519.74 412.57 516.68 405.59 511.86 398.61 505.67 391.73 499.6 384.69 493.26 377.5 487.31 370.31 483.13 363.32 480.34 356.64 479.02 346.95 480.54 330.68 488.37 324.73 492.05 317.97 493.09 314.79 478.71 314.11 469.36 312.51 462.57 310.39 455.24 307.67 447.61 303.71 439.91 299.3 432.06 294.77 424.19 289.8 416.32 285.72 408.8 282.87 401.64 280.74 394.4 280.38 387.38 281.78 380.52 284.33 373.41 288.58 366.27 294.23 359.01 300.73 351.35 308.24 343.42 316.41 335.26 324.9 326.72 333.71 318.03 342.58 309.42 351.45 300.84 360.27 292.76 368.92 285.6 377.49 279.25 385.94 274.41 394.21 271.49 402.45 270.02 410.58 270.74 418.51 273.73" stroke-dasharray="10 5" transform="rotate(64.64, 400, 400)" opacity="0.16"></path><path d="M411.3 284.41C418.32 288.28 424.61 293.53 430.11 299.72 435.55 306.13 440.13 312.92 443.77 319.76 448.6 329.16 453.64 345.35 454.45 352.18 455.57 357.97 460.17 369.45 465.21 375.83 470.36 380.08 476.54 384.93 483.55 390.43 491.47 395.88 499.51 402.06 507 408.99 513.9 415.92 518.85 423.29 521.56 430.97 522.62 438.65 521.25 446.61 517.68 454.66 512.65 462.61 505.94 470.49 498.06 478.04 489.54 485.23 480.48 491.79 471.3 497.39 462.15 502.25 453.2 505.81 444.63 507.79 436.35 508.78 428.43 508.09 420.91 505.68 413.62 502.54 406.56 498.08 399.74 492.58 392.99 487.32 386.34 481.85 379.84 476.63 370.29 471.45 353.63 468.74 346.81 470.41 333.12 477.23 327.29 469.47 325.77 462.45 323.73 457.26 321.25 451.4 318.33 445.03 314.42 438.6 310.2 431.79 305.94 424.7 301.32 417.62 297.46 410.59 294.63 403.67 292.32 396.7 291.46 389.73 292.08 382.76 293.61 375.63 296.62 368.36 300.92 360.96 305.99 353.31 312.08 345.48 318.9 337.54 326.14 329.45 333.83 321.39 341.73 313.58 349.76 305.99 357.84 299.01 365.82 292.98 373.82 287.74 381.67 283.87 389.28 281.68 396.9 280.71 404.28 281.6 411.3 284.41" stroke-dasharray="0 8" transform="rotate(68.68, 400, 400)" opacity="0.23"></path><path d="M401.94 295.09C414.14 302.69 423.43 314.14 429.65 326.96 435.81 338.69 439.37 349.9 441.28 360.15 445.15 368.48 450.08 376.92 457.41 386.09 468.98 394.64 482.74 405.02 495.83 417.5 507.11 429.97 511.17 443.45 507.83 456.8 499.83 469.61 486.68 481.04 471.34 489.21 455.33 495.01 439.45 495.94 424.91 491.36 410.85 485.13 397.76 475.86 386.01 465.95 374.27 460.42 364.78 457.89 357.81 457.8 348.73 462.39 340.47 461.59 336.98 452.26 331.39 444.31 324.47 433.71 317.11 421.18 308.57 408.64 303.52 395.44 302.92 381.98 305.03 368.18 311.96 353.63 322.25 339.04 334.25 324.52 347.98 311.06 361.83 300.68 376.01 293.1 389.73 290.85 401.94 295.09" stroke-dasharray="7 10" transform="rotate(72.72, 400, 400)" opacity="0.42"></path><path d="M392.2 305.77C402.64 312.4 410.7 322.4 416.44 333.85 422.38 344.85 426.71 355.86 430.27 366.24 435.62 375.32 442.07 384.34 450.22 393.58 461.24 402.31 473.46 412.14 484.66 423.14 494.5 434.14 498.74 445.32 497.17 455.74 492.07 465.64 482.4 473.77 470.26 478.82 457.07 482.19 443.28 481.62 430.24 476.89 417.36 471.39 405.36 463.64 394.86 455.27 384.35 450.22 376.16 447.15 370.26 445.83 362.18 447.96 352.63 446.76 347.67 439.64 341.8 433.64 335.06 425.04 328.28 414.18 320.56 403.32 315.67 391.34 314.33 378.86 314.86 366.29 319.39 353.12 326.94 340.27 335.98 327.9 346.89 316.86 358.3 308.76 370.13 303.05 381.77 301.77 392.2 305.77" stroke-dasharray="2 3" transform="rotate(76.76, 400, 400)" opacity="0.68"></path><path d="M383.95 316.45C392.72 322.11 399.9 330.6 405.58 340.5 411.55 350.37 416.73 360.62 421.66 370.56 428 379.73 435.25 388.82 443.51 397.8 453.57 406.44 464.11 415.53 473.49 424.99 481.89 434.44 486.04 443.36 485.77 451.07 483 458.38 476.44 463.79 467.47 466.5 457.41 468.18 446.3 466.8 435.36 462.4 424.35 457.79 413.89 451.5 404.68 444.59 395.46 440.09 388.22 436.75 382.85 434.55 375.14 434.49 363.86 431.67 357.81 425.79 351.91 421.06 345.56 414.04 339.45 404.86 332.62 395.68 328.08 385.29 326.27 374.4 325.67 363.57 328.22 352.39 333.33 341.77 339.58 331.81 347.65 323.24 356.52 317.31 365.77 313.25 375.19 312.76 383.95 316.45" stroke-dasharray="0 0" transform="rotate(80.80000000000001, 400, 400)" opacity="0.98"></path><path d="M378.76 327.13C385.97 331.82 392.4 338.78 398.07 347 404.01 355.41 409.73 364.42 415.44 373.35 422.12 381.93 429.43 390.47 437.18 398.73 445.93 406.8 454.7 414.9 462.32 422.75 470.92 441.89 451.4 452.52 438.73 447.98 430.03 444.35 421.44 439.45 413.6 433.91 405.76 430.03 399.33 426.67 394.23 423.95 386.67 422.18 373.99 417.32 367.35 412.04 361.72 408.04 355.96 402.28 350.62 394.75 344.77 387.21 340.71 378.68 338.74 369.8 337.43 361.06 338.51 352.22 341.65 344.08 345.52 336.57 351.04 330.38 357.52 326.37 364.28 323.73 371.55 323.84 378.76 327.13" stroke-dasharray="1 6" transform="rotate(84.84, 400, 400)" opacity="0.55"></path><path d="M377.61 337.8C389.11 345.98 400.46 360.08 411.41 374.99 424.49 389.54 439.2 404.33 451.15 416.79 461.8 433 439.3 435.35 419.94 423.23 407.21 418.03 397.24 413.03 389.69 407.84 380.06 404.57 370.13 397.38 361.79 385.49 352.11 373.6 348.83 359.51 351.91 347.68 356.53 337.76 366.11 333.25 377.61 337.8" stroke-dasharray="8 5" transform="rotate(88.88, 400, 400)" opacity="0.19"></path><path d="M380.73 348.48C389.42 354.46 399.29 364.77 409.11 375.96 419.87 387.28 431.24 398.85 439.98 408.07 448.59 419.77 436.37 421 422.48 412.55 412.87 408.26 404.07 403.22 396.65 397.9 388.14 393.81 379.64 387.43 372.96 378.61 363.99 365.03 369.02 345.7 380.73 348.48" stroke-dasharray="3 6" transform="rotate(92.92, 400, 400)" opacity="0.62"></path><path d="M387.51 359.16C399.3 367.63 417.42 385.91 428.81 398.04 438.62 410.15 433.48 410.92 420.73 401.88 407.97 396.83 392.96 386.93 384.13 375.23 373.88 363.52 375.72 354.44 387.51 359.16" stroke-dasharray="4 11" transform="rotate(96.96, 400, 400)" opacity="0.22"></path></g></svg>